<?xml version="1.0" encoding="UTF-8"?>
<!DOCTYPE svg PUBLIC "-//W3C//DTD SVG 1.1//EN" "http://www.w3.org/Graphics/SVG/1.1/DTD/svg11.dtd">
<!-- Creator: CorelDRAW X7 -->
<svg xmlns="http://www.w3.org/2000/svg" xml:space="preserve" width="129.848mm" height="62.1911mm" version="1.1" style="shape-rendering:geometricPrecision; text-rendering:geometricPrecision; image-rendering:optimizeQuality; fill-rule:evenodd; clip-rule:evenodd"
viewBox="0 0 60012 28743"
 xmlns:xlink="http://www.w3.org/1999/xlink">
 <defs>
  <style type="text/css">
   <![CDATA[
    .fil0 {fill:#2B2A29}
   ]]>
  </style>
 </defs>
 <g id="Слой_x0020_1">
  <metadata id="CorelCorpID_0Corel-Layer"/>
  <path class="fil0" d="M3459 19065l1 -340c54,-49 3189,-1121 3648,-1256 276,-82 1029,-390 1248,-407l0 9576 -4897 0 0 -7573zm-414 -675l0 8248 -740 0 0 -9967 1480 0 3 1373c-2,93 49,103 -269,189 -163,44 -312,119 -474,157zm1589 -544l1 -234c54,-36 1398,-499 1479,-506l-1 234 -1479 506zm-3826 -954l1279 -205 1 9951 87 0c-356,0 -711,0 -1067,0l0 -8792c0,-137 33,-496 -33,-599 -79,-124 -214,-227 -267,-355zm3613 567l-5 472 -216 71c-7,-1247 -77,-798 331,-1826l625 -1551c47,33 1837,2344 1868,2412 -52,36 -621,228 -691,240l-2 -473c-117,-2 -362,102 -481,147 -191,71 -1358,455 -1429,508zm-3161 -1093l7 7c-1,-1 -9,-5 -7,-7zm69 -4l800 -243 2 138c-117,0 -283,31 -408,50 -121,18 -268,65 -394,55zm1020 -257c329,29 732,109 1044,109l-1044 21 0 -130zm0 -327l1001 87c63,5 265,21 312,37l17 137 -1330 -152 0 -109zm-1235 412l-7 -150c207,-19 851,-236 1024,-240 -2,94 52,81 -200,148l-817 242zm0 -370c-10,-111 -49,-72 190,-128 97,-23 178,-51 277,-71 116,-25 486,-144 550,-104 -28,70 -19,49 -226,100l-791 203zm1235 -346l1327 109 0 87c-166,0 -123,-14 -218,-21l-832 -82c-195,-26 -257,46 -277,-93zm0 -370c169,0 802,87 1017,115 89,11 221,37 310,37l0 109 -1327 -109 0 -152zm-1235 411l-5 -144c102,-68 880,-201 1016,-265l6 146c-236,89 -863,190 -1017,263zm-6 -389l0 -196c160,-15 914,-208 1023,-218l0 174 -1023 240zm1241 -414c208,19 440,74 653,87l674 87 0 152 -653 -87c-107,-11 -229,-21 -333,-37 -107,-16 -239,-40 -341,-50l0 -152zm3068 -152l2209 730c118,39 241,75 362,116l326 110c46,21 19,8 42,23l0 1045 -266 104c-99,27 -180,63 -276,94 -115,39 -462,174 -564,168 -77,-86 -159,-202 -228,-295l-696 -893c-135,-163 -845,-1075 -909,-1202zm-3068 -3156c125,0 97,-28 248,339l549 1257c129,266 255,554 369,829 71,172 325,706 357,840 -133,0 -250,-28 -373,-41 -139,-14 -261,-24 -392,-43l-758 -91 0 -3090zm-1633 3395l1089 -2960c47,-118 123,-312 152,-435l174 0 0 3090c-85,3 -258,43 -348,65l-1067 240zm9032 -3112l0 -131c760,-181 1653,-475 2394,-653l0 414c-421,0 -843,60 -1256,115 -508,68 -702,151 -1138,255zm2612 -805l2659 627c123,24 105,14 105,134 -82,-7 -1036,-329 -1654,-326 -115,1 -159,-22 -261,-22l-849 0 0 -413zm-10118 63c32,58 32,186 0,243 -60,-28 -46,6 -51,-110 -4,-109 -10,-106 51,-133zm3 -776l229 556 -430 5c7,-76 160,-504 201,-561zm7503 1148l0 -348c396,-95 797,-220 1196,-307 175,-37 410,-100 586,-153l612 -150 0 305c-59,38 -122,33 -285,84 -513,161 -1254,336 -1795,491 -104,29 -199,76 -314,78zm2612 -958c120,0 239,41 350,64 116,24 228,45 345,68l1367 287c227,45 477,93 702,147l-1 392 -2705 -646c-89,-33 -42,37 -60,-71 -6,-35 2,-192 2,-241zm0 -587c96,2 243,48 348,65l2074 430c62,12 287,57 342,92l-1 348 -2402 -513c-122,-21 -240,-45 -361,-74l0 -348zm-2606 953l-5 -339c139,-91 1984,-487 2388,-631l5 359c-67,51 -206,65 -291,84 -336,76 -1941,527 -2097,527zm2604 -1432c110,2 551,108 693,136l1712 356c101,23 257,65 361,74l-1 261 -2748 -581 -17 -246zm-2610 849l1 -256 879 -235c106,-27 206,-45 315,-78l1199 -302 0 261 -2394 610zm-448 -739c53,-117 594,-180 736,-214 452,-108 2170,-516 2421,-472l2411 484c110,24 722,107 759,160 -28,47 -250,135 -314,164 -194,86 -140,122 -342,74 -275,-64 -578,-105 -853,-171 -267,-65 -574,-132 -844,-178 -276,-47 -567,-130 -843,-180 -198,-37 -223,-43 -425,0 -126,27 -268,70 -398,102l-1629 417c-166,40 -227,109 -366,14 -76,-51 -276,-132 -313,-200zm949 -502l-39 23 39 -23zm2377 -391c159,-98 367,-209 531,-292 181,-92 314,32 603,175l1103 574c-185,-17 -381,-79 -566,-109 -192,-31 -370,-80 -563,-112l-1052 -210c-59,-19 20,9 -30,-12l-26 -14zm-2377 391l1374 -717c78,58 368,282 411,347 -159,0 -1579,366 -1785,370zm1738 -714l763 -4 -467 262 -296 -258zm1504 -396l999 421 3 298c-82,-20 -933,-456 -996,-509l-6 -210zm-2916 675l2 -234c80,-60 896,-434 978,-441 0,220 68,151 -428,399 -126,63 -445,250 -552,276zm1197 -522l0 -240c228,0 1364,-27 1488,15l16 203c-81,8 -63,19 -154,22l-1350 0zm1721 -608c151,78 340,144 500,216 128,57 394,144 494,223l7 190 -999 -421 -2 -208zm-2915 643l-3 -209 109 -66c46,-23 80,-35 122,-52 178,-74 558,-293 749,-339l-1 212 -976 454zm1194 -732l1393 0 96 8 16 101 -3 131 -1502 0 0 -240zm1719 -392c104,25 394,163 508,212 86,37 154,71 242,106 37,14 80,32 122,52l102 50c4,2 11,6 14,8 3,1 10,5 14,8l0 217c-78,-6 -932,-370 -996,-421l-6 -232zm-2910 653l-5 -190 976 -448 3 203c-146,40 -334,139 -486,211 -158,73 -338,144 -488,224zm1191 -718l1502 0 0 240 -1502 0 0 -240zm1763 -174l178 -519 1280 565c-63,115 -282,327 -389,414l-1069 -460zm-3520 -22l1259 -543c57,71 211,493 239,589l-1003 461c-74,-59 -464,-444 -495,-507zm1522 -562l1950 -4c1,82 -148,478 -189,546l-1564 -2c-40,-99 -201,-470 -197,-540zm714 -5009c3,4 7,6 8,14l19 47c9,31 9,44 15,71l1242 4656 -2045 0 186 -1185c67,-398 131,-802 190,-1203 58,-398 137,-797 193,-1200 27,-196 66,-398 96,-600 24,-165 94,-447 96,-600zm348 392c56,61 275,525 314,621 87,211 221,417 308,628 88,212 211,419 305,632 91,205 204,424 307,629 416,832 806,1686 1226,2517 -84,-20 -1265,-561 -1286,-586 -8,-8 -1171,-4336 -1174,-4441zm-1342 4403l-1293 555c12,-97 418,-1099 488,-1251 276,-604 1389,-3634 1516,-3773l-711 4469zm1342 -4403l-22 -40 22 40zm-631 -109l7 6c-1,0 -9,-4 -7,-6zm-2323 5245c61,126 552,537 677,689 79,98 36,1135 36,1335 -190,123 -1502,763 -1541,821l713 418 1 1960c-228,54 -552,240 -759,395 -110,82 -208,181 -289,298 -117,166 -129,241 -128,460 4,783 1,1568 1,2351 -140,-12 -2125,-683 -2435,-786 -134,-45 -279,-82 -410,-135 -68,-27 -355,-118 -420,-124 -99,114 -801,2024 -878,2130l-17 -127 -302 -1 0 -1318c113,-26 232,33 339,28 -1,-114 -1240,-2806 -1468,-3370 -201,-498 -146,-328 -286,-410l2 -210 296 -10c6,-93 -368,-989 -453,-1214l-84 -177c-52,52 -38,69 -75,165l-442 1221 250 8 5 232 -170 8 -360 970c-213,635 -497,1290 -712,1942 -53,161 -131,327 -186,489 -50,148 -117,370 -180,487 160,18 329,-81 499,-81l0 1458c-129,0 -761,94 -869,136l615 771c134,159 80,416 80,617l0 9097 14995 0c649,0 521,-79 832,234 84,83 483,501 544,533 44,-12 -430,-12332 -388,-12381l-372 8c-143,2 539,11182 475,11118 -411,-411 -238,52 -852,52l-7138 0c0,-4367 -1,-8734 0,-13101 0,-624 -141,-838 458,-1174 1389,-778 5279,-1035 6653,222 119,109 327,292 351,454 46,313 -66,2361 53,2429 72,19 301,13 372,-8 28,-96 31,-2292 13,-2511 -24,-291 -617,-807 -915,-978 -112,-65 -317,-156 -408,-223l37 -2021 340 -162c94,-47 322,-132 396,-191 -105,-119 -1376,-661 -1423,-763 -18,-109 -20,-1249 4,-1309 35,-91 627,-632 639,-690 31,-153 -2066,-4202 -2373,-4933 -177,-418 -488,-983 -699,-1433 -42,-88 -34,-138 -51,-189 -41,-123 34,67 -13,-31l-17 -26c-6,10 -11,17 -20,47l-593 1604c-220,544 -434,1089 -650,1635 -283,718 -672,1753 -973,2444 -99,227 -256,592 -327,821z"/>
  <path class="fil0" d="M22766 5037l873 0 0 13092c-218,0 -668,-37 -850,23 -64,193 -23,689 -23,920l3247 0c35,-212 65,-750 13,-920l-698 -26 -13 -13089 2304 0c0,535 38,12903 -19,13073 -212,72 -476,-31 -690,44 -88,276 -130,884 -128,1199 1,171 -27,262 -36,417 -22,380 -20,3337 20,3611 51,346 -58,1375 215,1600 131,108 661,65 772,20 332,-132 141,-787 145,-1146l-70 -1292c2,-310 -35,-550 -35,-872l34 -1782c1,-177 35,-239 37,-418 1,-182 34,-259 34,-419l1257 0 -36 4959c2,176 33,239 36,418 10,621 253,628 768,593 411,-28 360,-224 351,-560l-62 -845c-45,-313 -44,-1868 -44,-2191l-1 -1328c-1,-363 129,-1283 108,-1677 -8,-155 -58,-184 -151,-303l-829 -9 0 -13092 870 0c3,-222 39,-738 -20,-920 -206,-67 -5283,-23 -6227,-23 -1375,0 -1152,-257 -1152,943z"/>
  <path class="fil0" d="M36697 19561l78 968c92,691 201,1502 337,2178 41,205 99,394 134,599l288 1178 -1850 0c14,-164 115,-410 154,-579 180,-785 626,-3013 685,-3750 10,-132 26,-205 35,-348 4,-51 4,-109 21,-154 52,-137 -51,-74 118,-92zm-559 -1292c0,155 -12,212 29,355 209,716 9,1690 -113,2424 -101,603 -476,2647 -718,3123 -136,269 -214,268 -490,277 -803,27 -51,1399 188,2117l345 1198 440 -101c-7,-331 -567,-1842 101,-2453 247,-227 542,-167 881,-167 364,0 561,-49 873,140 216,131 316,421 365,648 115,529 -208,1522 -184,1825 169,61 246,51 409,103l383 -1289c162,-484 758,-1647 441,-1934 -241,-219 -253,173 -484,-318 -155,-329 -256,-1001 -343,-1367 -124,-519 -591,-3176 -588,-3672l-34 -838c-41,-256 -458,-106 -662,-104 -278,1 -581,-29 -839,33z"/>
  <path class="fil0" d="M48882 19183c425,208 890,1801 986,2289 91,460 361,2673 -228,2831 -383,103 -665,-579 -774,-851 -361,-904 -374,-1957 -301,-2916 20,-259 143,-1197 317,-1353zm-575 9560l-168 0c-81,-42 -135,-146 -134,-275 5,-641 5,-1283 4,-1924 -3,-1272 -320,-4252 -157,-5499 73,-560 165,-1033 353,-1567 201,-573 987,-2516 1709,-1334 505,825 827,1936 950,2891 418,3256 -850,5223 -1885,3666 -110,-165 -260,-501 -333,-598 6,433 95,1257 96,1812 1,587 40,1318 -34,1886 -79,601 -248,871 -401,942z"/>
  <path class="fil0" d="M40677 24484l0 -2968c1053,-2 1586,2094 1222,2758 -167,304 -730,210 -1222,210zm43 -3562c-61,-622 -4,-1540 31,-2160 703,-39 1140,-15 902,1042 -70,309 -278,787 -563,973 -186,122 -241,77 -370,145zm627 319c94,-216 1125,-493 1420,-1545 90,-321 134,-994 -79,-1274 -209,-275 -983,-188 -1313,-188 -231,0 -1308,-32 -1442,25 -322,135 -242,936 -279,1222 -60,456 -43,4541 16,5136 26,249 62,415 341,427 447,20 2625,47 2912,-94 592,-292 598,-2429 -1102,-3426 -116,-68 -424,-188 -474,-283z"/>
  <path class="fil0" d="M49161 12264l1311 1168c53,103 -6,1372 17,1659l34 560c-2,1129 148,1047 629,1048 97,0 173,3 266,-13l137 -38c216,-97 136,-593 118,-821l-69 -804c-31,-1147 -113,-3198 46,-4285 51,-346 141,-532 -53,-735l-821 -8c-337,343 -230,1225 -253,1676 -7,142 -35,188 -37,347 -2,267 2,537 2,805l-1327 -1222c-22,-264 -1,-563 56,-817 45,-202 106,-587 -12,-764 -114,-40 -681,-47 -811,-22 -228,43 -242,404 -246,590l-35 1641c0,933 -57,3362 79,4146 64,365 212,324 516,324 798,-1 520,-255 521,-1117 2,-533 -68,-1069 -68,-1607 0,-570 0,-1141 0,-1711z"/>
  <path class="fil0" d="M59523 24105c-114,46 -452,485 -724,625 -803,414 -1229,-525 -1384,-1134l-158 -1208c3,-314 421,-692 721,-544 223,110 577,601 723,643 419,118 880,-622 1031,-982 56,-135 -78,-314 -141,-475 -86,68 -34,60 -130,137 -48,40 -115,74 -172,108 -370,-113 -564,-743 -1087,-529 -496,203 -586,482 -932,732 -43,-411 28,-3230 725,-2864 363,191 540,1610 1379,1175 178,-92 405,-275 499,-431l-213 -447c-150,32 -142,182 -347,31 -108,-80 -374,-517 -876,-767 -580,-290 -1139,-135 -1526,373 -975,1278 -1085,3846 -606,5391 144,466 502,1011 913,1286 838,558 1655,310 2223,-446 185,-246 387,-419 82,-674z"/>
  <path class="fil0" d="M59677 15780c-121,64 -990,1258 -1680,427 -498,-599 -499,-1396 -580,-2116 -35,-317 414,-633 678,-534 318,119 521,517 736,629 334,173 635,-277 795,-500 247,-342 400,-540 114,-904 -139,107 -129,170 -314,215 -331,-90 -564,-718 -1070,-511 -329,134 -752,493 -946,753 -49,-469 88,-2031 254,-2457 100,-255 174,-429 496,-395 312,322 475,1000 890,1205 277,137 521,-44 740,-220 99,-80 234,-145 221,-286 -5,-63 -142,-322 -185,-371 -154,-4 -212,116 -374,-12 -64,-50 -380,-511 -886,-757 -560,-272 -1148,-78 -1515,397 -954,1231 -1123,3837 -579,5328 416,1141 1516,1927 2590,1292 269,-158 1100,-901 615,-1183z"/>
  <path class="fil0" d="M33436 15778c-77,22 -478,478 -696,595 -330,177 -749,151 -992,-138 -252,-299 -326,-575 -432,-929 -59,-195 -81,-353 -104,-560l-67 -635c-21,-313 407,-662 695,-554 548,205 705,1314 1525,124 68,-99 204,-312 252,-415 67,-149 52,-103 -13,-246 -49,-105 -53,-155 -120,-238 -139,107 -128,170 -314,215 -329,-90 -572,-715 -1069,-511 -473,195 -676,522 -947,718 -27,-260 48,-1479 75,-1659 53,-358 132,-1156 580,-1166 247,67 548,818 777,1073 380,424 971,-3 1172,-334 -43,-148 -105,-305 -218,-411 -308,47 -105,233 -623,-285 -666,-665 -1453,-916 -2126,-84 -776,958 -863,2287 -868,3462 -4,1065 230,2470 1193,3102 775,509 1707,291 2229,-448 195,-275 332,-363 91,-676z"/>
  <path class="fil0" d="M40142 11497l165 997c145,706 307,1432 60,2044 -416,1032 -1446,400 -917,-1370 147,-489 389,-1213 692,-1671zm-198 -1432c-183,504 267,588 -160,1306 -184,310 -396,723 -559,1048 -339,679 -791,1629 -819,2393 -24,651 127,2313 1161,1997 355,-108 602,-547 736,-869 79,-189 366,-1238 371,-1245 101,188 286,1895 380,1975 170,65 922,70 1064,-35 66,-200 -245,-1278 -294,-1573 -91,-539 -203,-1083 -294,-1626l-496 -3380c-139,-54 -945,-46 -1090,9z"/>
  <path class="fil0" d="M43028 12712c114,-5 329,-66 436,-105 19,-241 -88,-453 -99,-691 -13,-278 -4,-519 73,-766 167,-534 510,-632 1044,-632 0,280 0,559 0,838 1,303 -35,527 -34,838 0,537 -37,4016 18,4276 72,343 248,302 576,299 714,-6 487,-415 488,-1153 0,-279 4,-561 1,-840l-37 -3839c-1,-184 33,-271 36,-419 893,0 1143,457 1118,1363 -6,238 -115,521 -100,726 108,39 323,100 436,105l339 -1238c182,-532 345,-650 302,-1270 -41,-585 -677,-253 -1067,-194 -334,51 -2734,31 -3126,-12 -494,-55 -951,-382 -1061,225 -79,431 167,834 306,1228 74,210 300,1190 351,1261z"/>
  <path class="fil0" d="M52897 21935c455,211 736,391 900,915 195,622 182,985 182,1669l-1082 0c0,-219 7,-448 1,-665l-1 -1919zm18 -681c-84,-275 19,-2109 81,-2467 122,-705 -18,-579 -625,-589 -700,-13 -469,915 -527,1427 -28,242 -30,391 -30,634l0 3945c1,976 -130,838 1746,838 1831,0 1714,156 1713,-909 -1,-651 -265,-1445 -646,-1974 -200,-278 -375,-443 -668,-623 -118,-72 -334,-162 -468,-196 -184,-45 -457,-50 -576,-86z"/>
  <path class="fil0" d="M44841 19389c1417,328 1720,3152 1367,4271 -817,255 -1264,-977 -1411,-1585 -116,-476 -213,-865 -210,-1362 2,-414 29,-969 254,-1324zm584 -1644c-482,157 -890,1222 -1043,1680 -500,1495 -635,3152 -15,4615 155,367 725,1642 1243,1471 781,-257 1457,-3242 1458,-3993 1,-740 -40,-1693 -351,-2376 -172,-376 -763,-1568 -1292,-1397z"/>
  <path class="fil0" d="M31959 19390c699,149 1163,1081 1308,1715 99,434 185,865 183,1319 -1,247 48,1229 -254,1280 -706,119 -1204,-1183 -1315,-1702 -109,-507 -178,-787 -177,-1324 0,-386 13,-969 255,-1288zm583 -1645c-497,131 -901,1213 -1052,1672 -515,1558 -613,3104 -11,4628 141,357 747,1650 1247,1465 438,-163 850,-1311 990,-1738 240,-729 421,-1488 467,-2256 39,-659 -90,-1754 -361,-2362 -174,-392 -747,-1548 -1280,-1409z"/>
  <path class="fil0" d="M53322 11155c377,116 599,256 825,592 621,923 893,2586 554,3613 -834,179 -1255,-903 -1428,-1552 -178,-669 -387,-2055 49,-2653zm517 -1579c-462,161 -848,1235 -1007,1680 -502,1404 -583,3189 53,4546 174,371 700,1586 1256,1340 450,-200 798,-1281 970,-1721 246,-628 443,-1579 439,-2249 -4,-776 -21,-1603 -372,-2317 -215,-440 -719,-1496 -1339,-1279z"/>
  <path class="fil0" d="M36417 13381l0 1676c-1,212 35,332 37,522 2,286 -34,780 115,1002 140,209 809,122 975,57 172,-151 30,-911 24,-1161l-69 -1257c0,-597 -36,-2324 5,-2685 17,-145 23,-220 30,-388 8,-187 244,-1021 -7,-1144 -186,-20 -775,-64 -888,74 -230,283 -168,1069 -188,1313 -31,377 -3,1382 -94,1442 -88,58 -312,34 -403,-35 -224,-172 -407,-812 -459,-1077 -63,-321 -92,-557 -135,-878 -26,-196 -19,-712 -198,-814 -96,-56 -849,-54 -967,-19 -271,81 -108,574 -80,787 82,633 554,2630 1000,3050 215,203 539,74 695,-130 130,-169 373,-442 607,-335z"/>
  <path class="fil0" d="M4917 16605c15,-170 156,-578 312,-670 197,109 227,237 339,447 -122,53 -529,221 -651,223zm-131 262c172,0 955,-288 1039,-354 12,-126 -158,-446 -239,-554 -120,-160 -309,-339 -522,-185 -196,142 -331,593 -386,833 -29,127 -65,260 108,260z"/>
 </g>
</svg>
